<svg xmlns="http://www.w3.org/2000/svg" viewBox="0 0 60 52.779"><defs><style>.cls-1{fill:#fff;}</style></defs><title>kawunu_logo_1</title><g id="Layer_2" data-name="Layer 2"><g id="Layer_1-2" data-name="Layer 1"><path class="cls-1" d="M37.662,29.175c-1.7-2.8-3.451-5.683-4.867-8.059s-2.5-4.246-2.88-5h0a4.16,4.16,0,0,1-.416-1.9,4.951,4.951,0,0,1,.216-1.482h0a4.652,4.652,0,0,1,.266-.592c.955-1.885,4.049-6.925,6.279-10.451H42.2L33.847,16.358h0a.882.882,0,0,0-.113.429.847.847,0,0,0,.442.744.875.875,0,0,0,.428.112.846.846,0,0,0,.744-.441h0L44.365,1.269h0a.829.829,0,0,0,.107-.423.831.831,0,0,0-.108-.424A.867.867,0,0,0,43.655,0H35.791a.832.832,0,0,0-.706.378h0c-.33.516-1.936,3.068-3.527,5.694-.795,1.313-1.587,2.644-2.214,3.748-.313.552-.585,1.048-.8,1.456a7.621,7.621,0,0,0-.432.942,6.6,6.6,0,0,0-.294,1.994,5.938,5.938,0,0,0,.588,2.656c.343.686,1.207,2.183,2.356,4.118C34.16,26.7,40.027,36.218,42.15,39.691H35.808c-1.388-2.169-8.2-12.8-9.435-14.81a12.825,12.825,0,0,1-1.223-6.207V.846A.843.843,0,0,0,24.3,0H16.646A.843.843,0,0,0,15.8.846V40.537a.843.843,0,0,0,.846.846H24.3a.843.843,0,0,0,.846-.846V31.849a.775.775,0,0,0-.25-.581.9.9,0,0,0-1.192,0,.775.775,0,0,0-.25.581v7.842H17.492v-38h5.966V18.674a14.474,14.474,0,0,0,1.453,7.048v0l0,0c.7,1.156,3.058,4.84,5.282,8.3S34.51,40.74,34.672,41h0a.83.83,0,0,0,.707.379h8.275a.785.785,0,0,0,.712-.428.979.979,0,0,0,.1-.434.8.8,0,0,0-.108-.409C44.3,40.007,41.069,34.77,37.662,29.175Z"/><path class="cls-1" d="M0,44.977H.776v2.856l3.042-2.856H4.839L1.185,48.392l3.939,4.2H4.111L.776,49.043v3.544H0Z"/><path class="cls-1" d="M12.547,44.977l3.549,7.61h-.821l-1.2-2.5H10.8l-1.185,2.5H8.766l3.6-7.61Zm-.1,1.617-1.3,2.755h2.6Z"/><path class="cls-1" d="M20.025,44.977h.781l1.554,5.484,2.182-5.484H24.7l2.156,5.484,1.581-5.484h.775l-2.186,7.61h-.142L24.626,46.83l-2.3,5.757h-.142Z"/><path class="cls-1" d="M33.829,44.977h.761v4.594a9.448,9.448,0,0,0,.031,1.02,1.693,1.693,0,0,0,.264.752,1.546,1.546,0,0,0,.636.507,2,2,0,0,0,.864.2,1.7,1.7,0,0,0,.724-.16,1.606,1.606,0,0,0,.579-.445,1.8,1.8,0,0,0,.342-.688,5.685,5.685,0,0,0,.077-1.19V44.977h.761v4.594a5.587,5.587,0,0,1-.2,1.648,2.237,2.237,0,0,1-.8,1.094,2.277,2.277,0,0,1-1.446.466,2.772,2.772,0,0,1-1.578-.44,2.119,2.119,0,0,1-.879-1.164,6.165,6.165,0,0,1-.14-1.6Z"/><path class="cls-1" d="M43.924,52.587v-7.61h.166l5.064,5.834V44.977h.75v7.61h-.17L44.71,46.825v5.762Z"/><path class="cls-1" d="M54.961,44.977h.761v4.594a9.448,9.448,0,0,0,.031,1.02,1.693,1.693,0,0,0,.264.752,1.546,1.546,0,0,0,.636.507,2,2,0,0,0,.864.2,1.7,1.7,0,0,0,.724-.16,1.606,1.606,0,0,0,.579-.445,1.8,1.8,0,0,0,.342-.688,5.685,5.685,0,0,0,.077-1.19V44.977H60v4.594a5.587,5.587,0,0,1-.2,1.648,2.237,2.237,0,0,1-.8,1.094,2.277,2.277,0,0,1-1.446.466,2.772,2.772,0,0,1-1.578-.44,2.119,2.119,0,0,1-.879-1.164,6.165,6.165,0,0,1-.14-1.6Z"/></g></g></svg>